<?xml version="1.0" standalone="no"?>
<!DOCTYPE svg PUBLIC "-//W3C//DTD SVG 20010904//EN"
 "http://www.w3.org/TR/2001/REC-SVG-20010904/DTD/svg10.dtd">
<svg version="1.0" xmlns="http://www.w3.org/2000/svg"
 width="1080.000000pt" height="1080.000000pt" viewBox="0 0 1080.000000 1080.000000"
 preserveAspectRatio="xMidYMid meet">

<g transform="translate(0.000000,1080.000000) scale(0.100000,-0.100000)"
fill="#000000" stroke="none">
<path d="M1124 8990 c-125 -13 -170 -28 -326 -107 -127 -64 -167 -89 -236
-152 -46 -42 -97 -98 -114 -126 -17 -27 -47 -68 -68 -91 -59 -64 -93 -175
-125 -400 -16 -111 -8 -249 20 -379 9 -38 21 -93 27 -121 23 -114 191 -320
343 -424 28 -18 69 -50 91 -71 60 -54 88 -66 225 -93 238 -48 325 -56 633 -56
l291 0 36 -24 c20 -14 51 -46 68 -72 l31 -47 0 -756 c0 -868 -1 -855 74 -976
55 -87 69 -99 156 -126 53 -17 80 -19 145 -14 45 4 91 14 105 23 54 34 152
129 173 167 l22 40 5 1515 c5 1431 6 1517 23 1555 33 72 52 85 127 85 75 0
217 43 268 80 16 12 52 63 80 114 l51 92 -10 73 c-10 72 -12 75 -88 165 -76
89 -79 91 -152 113 -74 21 -78 22 -939 21 -476 0 -897 -4 -936 -8z m807 -697
c22 -20 52 -56 66 -81 l26 -44 -6 -201 c-3 -111 -10 -214 -16 -230 -6 -15 -32
-41 -58 -57 l-47 -30 -320 1 c-328 0 -440 9 -484 40 -11 9 -55 52 -95 96 l-75
81 -7 79 c-5 63 -3 87 11 123 49 125 140 208 262 240 57 16 114 18 384 19
l318 1 41 -37z"/>
<path d="M4191 8984 c-75 -16 -81 -20 -184 -116 -68 -63 -80 -80 -87 -118 -17
-87 -12 -141 21 -210 45 -95 117 -149 247 -183 76 -20 104 -21 1957 -24 1705
-3 1881 -5 1897 -20 10 -9 27 -40 38 -70 20 -53 20 -68 20 -3062 0 -2746 -1
-3012 -16 -3047 -34 -81 -46 -90 -141 -108 -79 -14 -329 -16 -2553 -15 -2820
1 -2600 -6 -2655 83 l-30 49 -3 243 -3 243 30 33 29 33 2194 5 2193 5 66 31
c100 48 151 129 164 263 10 105 -17 220 -65 271 -44 48 -162 93 -280 109 -60
8 -693 11 -2171 11 -1990 0 -2087 1 -2102 18 -41 45 -55 103 -60 258 -3 114
-9 160 -22 187 -9 20 -55 70 -102 111 -78 69 -89 75 -140 82 -93 11 -125 9
-191 -16 -73 -27 -106 -56 -156 -139 -68 -110 -67 -109 -64 -1032 l4 -824 41
-120 c22 -66 48 -137 57 -157 24 -56 166 -206 228 -241 29 -16 70 -43 90 -59
54 -43 151 -78 253 -94 135 -21 5279 -21 5405 0 105 17 202 53 266 99 27 19
68 44 91 56 26 13 63 47 93 84 27 34 64 76 82 94 33 31 53 77 115 263 l28 85
5 2395 5 2395 22 31 c12 17 40 47 63 67 l40 37 293 0 c317 0 419 9 637 56 132
28 182 48 215 84 11 12 46 40 78 62 113 77 289 265 340 363 22 43 68 273 77
385 5 65 3 125 -6 190 -35 246 -63 333 -136 416 -26 31 -57 72 -67 92 -11 21
-56 71 -102 112 -67 61 -109 88 -238 153 -108 54 -179 84 -231 95 -68 14 -333
16 -2795 18 -2316 2 -2730 0 -2784 -12z m5421 -674 c119 -33 218 -119 257
-225 19 -50 21 -70 15 -138 l-7 -80 -85 -88 c-47 -48 -97 -92 -111 -98 -62
-24 -163 -31 -460 -31 -309 0 -317 1 -355 23 -76 43 -77 49 -84 285 l-5 210
26 44 c14 25 44 61 66 81 l41 37 315 0 c284 0 322 -2 387 -20z"/>
<path d="M5505 7690 c-94 -13 -286 -49 -325 -62 -19 -6 -56 -26 -82 -44 -26
-18 -87 -53 -136 -78 -48 -24 -108 -61 -132 -81 -24 -20 -64 -47 -89 -60 -50
-25 -86 -60 -119 -115 -11 -19 -34 -45 -51 -58 -16 -12 -44 -43 -62 -69 -18
-27 -54 -72 -79 -101 -26 -29 -66 -92 -90 -140 -44 -88 -131 -202 -179 -234
-18 -13 -46 -18 -96 -18 -103 0 -242 -27 -299 -58 -52 -29 -101 -83 -135 -149
-16 -33 -21 -61 -21 -126 0 -76 3 -87 31 -130 16 -25 57 -71 90 -101 51 -48
72 -59 145 -81 114 -36 130 -52 142 -143 8 -70 8 -72 -17 -89 -14 -9 -63 -25
-110 -35 -102 -23 -157 -53 -204 -111 -61 -75 -77 -117 -77 -207 0 -98 25
-156 100 -231 62 -62 116 -78 285 -86 78 -3 141 -11 157 -19 45 -23 146 -159
192 -257 31 -67 59 -109 102 -154 94 -98 178 -194 212 -245 17 -25 48 -56 67
-68 19 -12 54 -38 78 -57 23 -20 79 -53 124 -74 45 -20 106 -53 136 -72 90
-58 108 -65 263 -98 140 -30 162 -32 359 -33 224 -1 307 8 462 50 119 32 402
169 458 223 22 21 58 48 80 61 45 27 153 122 188 166 12 16 36 71 53 123 l30
95 -16 75 c-21 93 -39 131 -90 180 -45 44 -147 101 -181 101 -12 0 -51 -5 -86
-11 -52 -9 -73 -19 -110 -51 -26 -22 -65 -51 -87 -65 -23 -14 -68 -51 -102
-82 -116 -107 -202 -163 -283 -182 -173 -42 -492 -33 -576 16 -22 13 -88 49
-147 81 -106 56 -128 75 -143 124 -4 14 -18 46 -30 72 l-22 46 47 26 c38 21
62 26 116 26 83 0 216 30 253 57 14 11 47 58 73 104 45 79 48 88 48 157 0 66
-4 81 -41 153 -23 45 -55 90 -73 103 -17 14 -68 34 -113 45 -70 18 -112 21
-305 21 -213 0 -225 1 -263 23 -45 25 -51 46 -40 134 10 84 26 89 315 96 223
5 239 6 305 31 83 32 92 39 164 141 l56 80 -4 78 c-3 69 -7 85 -46 152 -23 41
-54 85 -69 96 -37 29 -166 66 -260 74 -55 5 -89 14 -111 28 l-32 21 14 44 c7
25 13 55 13 68 0 40 45 80 137 119 49 21 113 52 143 71 76 46 162 58 370 51
186 -6 264 -22 321 -68 20 -15 60 -40 90 -55 29 -15 86 -57 126 -93 154 -141
230 -181 342 -181 40 0 153 50 189 83 46 43 79 111 92 187 11 68 10 83 -10
160 -12 47 -30 99 -41 117 -30 48 -139 145 -199 177 -30 16 -73 46 -95 67 -36
34 -151 100 -315 180 -107 52 -320 88 -550 94 -91 2 -192 0 -225 -5z"/>
</g>
</svg>
